<?xml version="1.0" encoding="utf-8"?>
<!-- Generator: Adobe Illustrator 16.0.3, SVG Export Plug-In . SVG Version: 6.00 Build 0)  -->
<!DOCTYPE svg PUBLIC "-//W3C//DTD SVG 1.1//EN" "http://www.w3.org/Graphics/SVG/1.1/DTD/svg11.dtd">
<svg version="1.1" xmlns="http://www.w3.org/2000/svg" xmlns:xlink="http://www.w3.org/1999/xlink" x="0px" y="0px" width="900px"
	 height="498.2px" viewBox="0 0 900 498.2" style="enable-background:new 0 0 900 498.2;" xml:space="preserve">
<style type="text/css">
<![CDATA[
	.st0{fill:#4D7DB5;}
	.st1{fill:#A3A2A2;}
]]>
</style>
<g id="Layer_1">
</g>
<g id="_x3C_Layer_x3E_">
	<g>
		<g>
			<path class="st0" d="M238.2,180.7c0,5-0.9,5.1-2,0.2l-18.4-79.8c-1.1-4.8-2.8-4.8-3.8,0L195,194.4c-1,4.9-1.8,4.8-1.8-0.2
				l0-104.2c0-5,3.8-10.4,8.4-12.2L229.8,67c4.6-1.8,8.4,0.8,8.4,5.8L238.2,180.7z"/>
			<g>
				<g>
					<g>
						<path class="st0" d="M229.8,256.9c4.6-1.8,8.4,0.8,8.4,5.7v32c0,5-3.8,10.4-8.4,12.2L92.6,359.4c-4.6,1.8-8.4-0.8-8.4-5.8
							l-0.1-221.4c0-5,3.8-10.5,8.4-12.3l30.2-11.7c4.6-1.8,8.4,0.8,8.3,5.7l-1.2,172.9c0,5,3.7,7.5,8.3,5.7L229.8,256.9z"/>
					</g>
					<g>
						<path class="st1" d="M230,202.9c4.6-1.8,8.4,0.8,8.4,5.8l-0.1,23c0,5-3.8,10.4-8.5,12.1l-79.1,29.5c-4.6,1.7-8.4-0.9-8.4-5.9
							V109.5c0-5,3.8-10.4,8.4-12.2l22.2-8.5c4.6-1.8,8.4,0.8,8.4,5.8v117.9c0,5,3.8,7.6,8.4,5.8L230,202.9z"/>
					</g>
				</g>
			</g>
		</g>
		<g>
			<g>
				<path class="st0" d="M277.1,65.4c0-1.2,1-2.2,2.2-2.2h16.8c1.2,0,2.2,1,2.2,2.2v88.5c0,1.2,1,2.2,2.2,2.2h42.6
					c1.2,0,2.2,1,2.2,2.2v14.2c0,1.2-1,2.2-2.2,2.2h-63.7c-1.2,0-2.2-1-2.2-2.2V65.4z"/>
				<path class="st0" d="M364.5,94.9c0-1.2,1-2.2,2.2-2.2h11.2c1.2,0,2.2,1,2.2,2.2v77.6c0,1.2-1,2.2-2.2,2.2h-11.2
					c-1.2,0-2.2-1-2.2-2.2V94.9z"/>
				<path class="st0" d="M469.3,92.7c1.2,0,2.2,1,2.2,2.2v77.6c0,1.2-1,2.2-2.2,2.2H458c-1.2,0-2.7-0.8-3.4-1.8l-36.3-50.6
					c-0.7-1-1.3-0.8-1.3,0.4v49.8c0,1.2-1,2.2-2.2,2.2h-11.2c-1.2,0-2.2-1-2.2-2.2V94.9c0-1.2,1-2.2,2.2-2.2h11.2
					c1.2,0,2.7,0.8,3.4,1.8l36.3,50.5c0.7,1,1.3,0.8,1.3-0.4V94.9c0-1.2,1-2.2,2.2-2.2H469.3z"/>
				<path class="st0" d="M517.5,142.5c-0.7-1-1.9-1-2.7-0.1l-6.1,7.1c-0.8,0.9-1.4,2.6-1.4,3.8v19.2c0,1.2-1,2.2-2.2,2.2h-11.2
					c-1.2,0-2.2-1-2.2-2.2V94.9c0-1.2,1-2.2,2.2-2.2h11.2c1.2,0,2.2,1,2.2,2.2v32.9c0,1.2,0.6,1.4,1.4,0.5l28.6-33.9
					c0.8-0.9,2.4-1.6,3.6-1.6h14.7c1.2,0,1.5,0.7,0.7,1.6l-28.1,32.5c-0.8,0.9-0.8,2.4-0.2,3.4l30.3,42.6c0.7,1,0.3,1.8-0.9,1.8
					h-14.9c-1.2,0-2.7-0.8-3.4-1.8L517.5,142.5z"/>
				<path class="st0" d="M651.6,156.4c1.2,0,2.2,1,2.2,2.2v13.9c0,1.2-1,2.2-2.2,2.2H582c-1.2,0-2.2-1-2.2-2.2v-11.3
					c0-1.2,0.7-2.9,1.5-3.7l31.8-33.4c0.8-0.9,2.1-2.3,2.9-3.2c0,0,8.2-9.3,10.4-13.2c2.2-4,3.3-7.7,3.3-11.4
					c0-9.6-5.9-14.4-17.8-14.4c-4.9,0-9.8,0.7-14.7,2.2c-4.9,1.5-9.6,3.6-14.1,6.6V74c0-1.2,0.9-2.5,2-3c0,0,17.1-6.8,27.8-6.8
					c11.5,0,20.7,2.7,27.5,8.1c6.8,5.4,10.2,12.8,10.2,22.3c0,10.8-4.9,21.6-14.7,32.4l-25.2,27.7c-0.8,0.9-0.5,1.6,0.7,1.6H651.6z"
					/>
			</g>
			<g>
				<path class="st0" d="M277.1,195.8c0-1.2,1-2.2,2.2-2.2h16.8c1.2,0,2.2,1,2.2,2.2v88.5c0,1.2,1,2.2,2.2,2.2h42.6
					c1.2,0,2.2,1,2.2,2.2v14.2c0,1.2-1,2.2-2.2,2.2h-63.7c-1.2,0-2.2-1-2.2-2.2V195.8z"/>
				<path class="st0" d="M414.8,288.5c-0.4-1.1-1.7-2-2.9-2h-30.6c-1.2,0-2.5,0.9-2.9,2l-5.3,14.5c-0.4,1.1-1.7,2-2.9,2H359
					c-1.2,0-1.8-0.9-1.4-2l29.5-77.8c0.4-1.1,1.7-2,2.9-2h13.8c1.2,0,2.5,0.9,2.9,2l29.5,77.8c0.4,1.1-0.2,2-1.4,2h-11.8
					c-1.2,0-2.5-0.9-2.9-2L414.8,288.5z M407.1,273.3c1.2,0,1.8-0.9,1.4-2l-11.1-30.7c-0.4-1.1-1.1-1.1-1.5,0l-11.2,30.8
					c-0.4,1.1,0.2,2,1.4,2H407.1z"/>
				<path class="st0" d="M454.8,297c-6.2-6.3-9.3-14.9-9.3-25.9v-45.8c0-1.2,1-2.2,2.2-2.2h11.2c1.2,0,2.2,1,2.2,2.2v43.3
					c0,1.2,0.1,3.1,0.3,4.3c0,0,1.4,10.9,4.8,14.5c3.4,3.6,8.2,5.4,14.3,5.4c6.3,0,11.1-1.8,14.4-5.5c3.3-3.6,5-9.2,5-16.5v-45.5
					c0-1.2,1-2.2,2.2-2.2h11.2c1.2,0,2.2,1,2.2,2.2V269c0,1.2-0.2,3.1-0.3,4.3c0,0-2.8,17.5-9,23.7c-6.2,6.3-14.7,9.4-25.6,9.4
					C469.5,306.4,461,303.3,454.8,297z"/>
				<path class="st0" d="M601,223.2c1.2,0,2.2,1,2.2,2.2v77.5c0,1.2-1,2.2-2.2,2.2h-11.2c-1.2,0-2.7-0.8-3.4-1.8l-36.3-50.6
					c-0.7-1-1.3-0.8-1.3,0.4v49.8c0,1.2-1,2.2-2.2,2.2h-11.2c-1.2,0-2.2-1-2.2-2.2v-77.5c0-1.2,1-2.2,2.2-2.2h11.2
					c1.2,0,2.7,0.8,3.4,1.8l36.3,50.5c0.7,1,1.3,0.8,1.3-0.4v-49.7c0-1.2,1-2.2,2.2-2.2H601z"/>
				<path class="st0" d="M637.2,301.2c-6.5-3.4-11.4-8.4-14.8-14.8c-3.4-6.4-5.1-13.9-5.1-22.4c0-8.5,1.7-16,5.2-22.4
					c3.4-6.4,8.5-11.3,15.1-14.8c6.6-3.4,14.5-5.2,23.6-5.2c3.8,0,7.6,0.4,11.3,1.1c3.7,0.7,7.1,1.9,10.1,3.4v12.2
					c0,1.2-0.1,2.2-0.2,2.2s-1.1-0.4-2.2-0.9c0,0-4.3-2.1-7.8-2.9c-3.5-0.9-6.8-1.3-9.9-1.3c-8.9,0-16,2.5-21.1,7.4
					c-5.1,4.9-7.7,12-7.7,21.3c0,9.2,2.5,16.2,7.5,21.2c5,4.9,11.9,7.4,20.6,7.4c3.4,0,6.8-0.5,10.3-1.6c3.5-1.1,6.8-2.6,10.1-4.5
					l0,0c0.3,0,0.5,1,0.5,2.2v10.1c0,1.2-0.9,2.5-2,3c0,0-11.6,4.6-20.1,4.6C651.5,306.4,643.7,304.7,637.2,301.2z"/>
				<path class="st0" d="M768,223.2c1.2,0,2.2,1,2.2,2.2v77.5c0,1.2-1,2.2-2.2,2.2h-11.2c-1.2,0-2.2-1-2.2-2.2v-31.7
					c0-1.2-1-2.2-2.2-2.2H718c-1.2,0-2.2,1-2.2,2.2v31.7c0,1.2-1,2.2-2.2,2.2h-11.2c-1.2,0-2.2-1-2.2-2.2v-77.5c0-1.2,1-2.2,2.2-2.2
					h11.2c1.2,0,2.2,1,2.2,2.2v27.8c0,1.2,1,2.2,2.2,2.2h34.5c1.2,0,2.2-1,2.2-2.2v-27.8c0-1.2,1-2.2,2.2-2.2H768z"/>
			</g>
		</g>
		<g>
			<path class="st1" d="M276.3,336.3h12.7c5.3,0,9.2,1.1,11.8,3.2s3.9,5.3,3.9,9.3c0,4.1-1.3,7.3-3.8,9.6c-2.6,2.3-6.3,3.4-11.2,3.4
				h-6v12.8h-7.3V336.3z M289,355.5c2.8,0,4.8-0.5,6.1-1.5c1.3-1,2-2.7,2-5c0-2.3-0.6-3.9-1.9-4.8c-1.3-1-3.3-1.4-6.2-1.4h-5.4v12.8
				H289z"/>
			<path class="st1" d="M325.5,345.2v7.2h-0.9c-2.9,0-5.2,0.8-7,2.4v19.9h-7.3v-22.3l-1.2-6.4h7.3l0.7,3.8c1.2-1.7,2.3-2.8,3.3-3.5
				c1-0.7,2.1-1,3.3-1H325.5z"/>
			<path class="st1" d="M335.3,373.4c-2.2-1.2-3.9-3-5.1-5.3s-1.8-4.9-1.8-7.9c0-3,0.6-5.6,1.8-7.9c1.2-2.3,2.9-4,5.1-5.3
				s4.7-1.8,7.6-1.8s5.4,0.6,7.6,1.8s3.9,3,5.1,5.3c1.2,2.3,1.8,4.9,1.8,7.9c0,3-0.6,5.6-1.8,7.9s-2.9,4-5.1,5.3
				c-2.2,1.2-4.7,1.8-7.6,1.8S337.5,374.6,335.3,373.4z M348,366.9c1.2-1.6,1.8-3.8,1.8-6.7c0-2.9-0.6-5.2-1.8-6.7s-2.9-2.3-5.1-2.3
				s-3.8,0.8-5.1,2.3s-1.8,3.8-1.8,6.7c0,2.9,0.6,5.1,1.8,6.7c1.2,1.6,2.9,2.3,5.1,2.3S346.8,368.5,348,366.9z"/>
			<path class="st1" d="M383.6,374.6l-1.1-3.8c-1.3,1.4-2.9,2.5-4.6,3.3c-1.7,0.8-3.6,1.2-5.5,1.2c-3.4,0-6-1.3-8-4
				c-2-2.6-2.9-6.2-2.9-10.8c0-4.8,1.1-8.5,3.4-11.2c2.3-2.7,5.4-4,9.5-4c2.6,0,5.1,0.6,7.4,1.7v-13.8h7.3v35.1l1.2,6.4H383.6z
				 M370.4,367c0.9,1.5,2.2,2.3,3.9,2.3c2.4,0,4.9-1.2,7.4-3.6v-13.6c-2.1-0.5-4.1-0.8-5.8-0.8c-2.3,0-4.1,0.7-5.2,2.2
				s-1.7,3.8-1.7,6.9C369.1,363.2,369.5,365.4,370.4,367z"/>
			<path class="st1" d="M416.1,374.6l-1-3.7c-1.9,1.7-3.5,2.8-4.9,3.4c-1.4,0.6-3,1-4.8,1c-1.7,0-3.3-0.4-4.7-1.2
				c-1.4-0.8-2.5-1.9-3.3-3.3c-0.8-1.4-1.2-3-1.2-4.8v-20.1h7.3v16c0,2.3,0.4,4.1,1.1,5.2c0.7,1.2,1.8,1.8,3.2,1.8
				c1.2,0,2.3-0.3,3.3-0.8c1-0.5,2.1-1.3,3.3-2.5v-19.7h7.3v22.3l1.2,6.4H416.1z"/>
			<path class="st1" d="M434.1,373.4c-2.3-1.2-4-3-5.2-5.2c-1.2-2.2-1.8-4.9-1.8-7.9c0-3,0.6-5.7,1.9-7.9c1.2-2.3,3-4.1,5.3-5.3
				c2.3-1.2,4.8-1.9,7.8-1.9c3.3,0,6.1,0.7,8.4,2v6.4h-0.2c-1.2-0.7-2.5-1.3-3.9-1.7c-1.4-0.4-2.7-0.5-3.9-0.5
				c-2.5,0-4.4,0.8-5.7,2.3c-1.3,1.5-1.9,3.7-1.9,6.7c0,5.8,2.5,8.7,7.5,8.7c1.3,0,2.7-0.2,4-0.6c1.4-0.4,2.7-1,3.9-1.8h0.2v6.5
				c-2.3,1.4-5.1,2.1-8.4,2.1C439,375.3,436.4,374.6,434.1,373.4z"/>
			<path class="st1" d="M466,345.9h6.6v5.4H466v13.9c0,2.8,1.1,4.2,3.2,4.2c1,0,2.1-0.3,3.5-1v6c-0.9,0.3-1.8,0.6-2.6,0.7
				c-0.8,0.2-1.7,0.2-2.7,0.2c-5.8,0-8.7-3.4-8.7-10.1v-13.9h-4.2v-5.4h4.2v-7.7l7.3-2.5V345.9z"/>
			<path class="st1" d="M512.4,374.6l-1.1-3.8c-1.3,1.4-2.9,2.5-4.6,3.3c-1.7,0.8-3.6,1.2-5.5,1.2c-3.4,0-6-1.3-8-4
				c-2-2.6-2.9-6.2-2.9-10.8c0-4.8,1.1-8.5,3.4-11.2c2.3-2.7,5.4-4,9.5-4c2.6,0,5.1,0.6,7.4,1.7v-13.8h7.3v35.1l1.2,6.4H512.4z
				 M499.3,367c0.9,1.5,2.2,2.3,3.9,2.3c2.4,0,4.9-1.2,7.4-3.6v-13.6c-2.1-0.5-4.1-0.8-5.8-0.8c-2.3,0-4.1,0.7-5.2,2.2
				s-1.7,3.8-1.7,6.9C498,363.2,498.4,365.4,499.3,367z"/>
			<path class="st1" d="M551.1,362.4h-20c0.3,2.2,1.1,3.9,2.4,5.1c1.3,1.2,3.1,1.8,5.4,1.8c1.7,0,3.4-0.3,5.4-0.9
				c1.9-0.6,3.7-1.4,5.4-2.5h0.2v5.9c-1.5,1.1-3.1,2-5,2.6c-1.9,0.6-3.9,0.9-6,0.9c-3,0-5.6-0.6-7.9-1.8s-4-3-5.2-5.2
				s-1.8-4.9-1.8-8c0-3,0.6-5.6,1.7-7.9c1.2-2.3,2.8-4,4.9-5.3c2.1-1.2,4.5-1.9,7.3-1.9c2.7,0,5,0.6,7,1.8c2,1.2,3.5,3,4.6,5.2
				c1.1,2.3,1.6,4.9,1.6,8V362.4z M533.6,352.8c-1.2,1.1-1.9,2.7-2.3,4.7h12.4c-0.3-2.1-0.9-3.7-1.9-4.8c-1-1.1-2.2-1.7-3.9-1.7
				C536.2,351.1,534.7,351.6,533.6,352.8z"/>
			<path class="st1" d="M583.4,345.9l-10.6,28.7h-9l-10.6-28.7h7.4l7.9,22.7l7.9-22.7H583.4z"/>
			<path class="st1" d="M612.1,362.4h-20c0.3,2.2,1.1,3.9,2.4,5.1c1.3,1.2,3.1,1.8,5.4,1.8c1.7,0,3.4-0.3,5.4-0.9
				c1.9-0.6,3.7-1.4,5.4-2.5h0.2v5.9c-1.5,1.1-3.1,2-5,2.6c-1.9,0.6-3.9,0.9-6,0.9c-3,0-5.6-0.6-7.9-1.8s-4-3-5.2-5.2
				s-1.8-4.9-1.8-8c0-3,0.6-5.6,1.7-7.9c1.2-2.3,2.8-4,4.9-5.3c2.1-1.2,4.5-1.9,7.3-1.9c2.7,0,5,0.6,7,1.8c2,1.2,3.5,3,4.6,5.2
				c1.1,2.3,1.6,4.9,1.6,8V362.4z M594.6,352.8c-1.2,1.1-1.9,2.7-2.3,4.7h12.4c-0.3-2.1-0.9-3.7-1.9-4.8c-1-1.1-2.2-1.7-3.9-1.7
				C597.2,351.1,595.7,351.6,594.6,352.8z"/>
			<path class="st1" d="M618.1,333.1h7.3v41.5h-7.3V333.1z"/>
			<path class="st1" d="M637.8,373.4c-2.2-1.2-3.9-3-5.1-5.3s-1.8-4.9-1.8-7.9c0-3,0.6-5.6,1.8-7.9c1.2-2.3,2.9-4,5.1-5.3
				s4.7-1.8,7.6-1.8s5.4,0.6,7.6,1.8s3.9,3,5.1,5.3c1.2,2.3,1.8,4.9,1.8,7.9c0,3-0.6,5.6-1.8,7.9s-2.9,4-5.1,5.3
				c-2.2,1.2-4.7,1.8-7.6,1.8S640,374.6,637.8,373.4z M650.5,366.9c1.2-1.6,1.8-3.8,1.8-6.7c0-2.9-0.6-5.2-1.8-6.7s-2.9-2.3-5.1-2.3
				s-3.8,0.8-5.1,2.3s-1.8,3.8-1.8,6.7c0,2.9,0.6,5.1,1.8,6.7c1.2,1.6,2.9,2.3,5.1,2.3S649.3,368.5,650.5,366.9z"/>
			<path class="st1" d="M688.2,347.1c1.7,1.2,3,3,3.9,5.2c0.9,2.2,1.4,4.8,1.4,7.7c0,2.9-0.5,5.5-1.7,7.8c-1.1,2.3-2.6,4.2-4.5,5.5
				c-1.9,1.3-4.1,2-6.5,2c-2.9,0-5.5-0.6-7.8-1.8v13.9h-7.3v-35.1l-1.2-6.4h6.7l1.2,4.1c1.3-1.5,2.9-2.7,4.6-3.5
				c1.8-0.8,3.6-1.2,5.5-1.2C684.6,345.3,686.6,345.9,688.2,347.1z M685.9,360.1c0-2.8-0.4-5-1.3-6.5c-0.9-1.5-2.1-2.3-3.8-2.3
				c-2.6,0-5.2,1.3-7.8,3.8v13.3c2.3,0.6,4.5,0.9,6.3,0.9C683.7,369.3,685.9,366.2,685.9,360.1z"/>
			<path class="st1" d="M738.7,347.8c1.7,1.7,2.5,4,2.5,6.7v20.1H734v-16c0-2.5-0.3-4.3-1-5.4c-0.7-1.1-1.8-1.6-3.3-1.6
				c-1.9,0-3.8,1-5.8,3.1v19.8h-7.3v-16c0-2.5-0.3-4.3-1-5.4c-0.7-1.1-1.8-1.6-3.3-1.6c-1.9,0-3.8,1-5.8,3.1v19.8h-7.3v-22.3
				l-1.2-6.4h6.7l1,3.7c1.5-1.5,2.9-2.6,4.3-3.3c1.4-0.7,3-1,4.6-1c1.8,0,3.5,0.4,4.9,1.2c1.4,0.8,2.5,2,3.2,3.4
				c1.5-1.7,3-2.8,4.5-3.5c1.4-0.7,3-1.1,4.8-1.1C734.8,345.2,737.1,346.1,738.7,347.8z"/>
			<path class="st1" d="M774.5,362.4h-20c0.3,2.2,1.1,3.9,2.4,5.1c1.3,1.2,3.1,1.8,5.4,1.8c1.7,0,3.4-0.3,5.4-0.9
				c1.9-0.6,3.7-1.4,5.4-2.5h0.2v5.9c-1.5,1.1-3.1,2-5,2.6c-1.9,0.6-3.9,0.9-6,0.9c-3,0-5.6-0.6-7.9-1.8s-4-3-5.2-5.2
				s-1.8-4.9-1.8-8c0-3,0.6-5.6,1.7-7.9c1.2-2.3,2.8-4,4.9-5.3c2.1-1.2,4.5-1.9,7.3-1.9c2.7,0,5,0.6,7,1.8c2,1.2,3.5,3,4.6,5.2
				c1.1,2.3,1.6,4.9,1.6,8V362.4z M757,352.8c-1.2,1.1-1.9,2.7-2.3,4.7H767c-0.3-2.1-0.9-3.7-1.9-4.8c-1-1.1-2.2-1.7-3.9-1.7
				C759.6,351.1,758.1,351.6,757,352.8z"/>
			<path class="st1" d="M803.2,347.8c1.8,1.7,2.7,4,2.7,6.7v20.1h-7.3v-16c0-2.5-0.4-4.3-1.1-5.4c-0.8-1.1-2-1.6-3.7-1.6
				c-1.9,0-3.9,1.1-6,3.2v19.7h-7.3v-22.3l-1.2-6.4h6.7l1,3.7c1.6-1.5,3.1-2.6,4.6-3.3c1.5-0.7,3-1,4.7-1
				C799.1,345.2,801.5,346.1,803.2,347.8z"/>
			<path class="st1" d="M821,345.9h6.6v5.4H821v13.9c0,2.8,1.1,4.2,3.2,4.2c1,0,2.1-0.3,3.5-1v6c-0.9,0.3-1.8,0.6-2.6,0.7
				c-0.8,0.2-1.7,0.2-2.7,0.2c-5.8,0-8.7-3.4-8.7-10.1v-13.9h-4.2v-5.4h4.2v-7.7l7.3-2.5V345.9z"/>
		</g>
		<g>
			<path class="st0" d="M85.2,432.6c-1.7-1.6-2.6-3.8-2.6-6.6c0-0.3,0-0.8,0.1-1.6l1.5-11.9c0.2-2.1,0.9-3.9,2-5.5
				c1.1-1.6,2.5-2.8,4.3-3.7s3.7-1.3,5.8-1.3c3,0,5.3,0.8,7.1,2.3c1.7,1.6,2.6,3.7,2.6,6.3c0,0.3,0,0.8-0.1,1.5
				c0,0.3-0.3,0.5-0.7,0.6l-3,0.2H102c-0.2,0-0.3,0-0.4-0.1s-0.1-0.1-0.1-0.2v-0.3c0.1-0.5,0.1-0.8,0.1-1.1c0-1.7-0.5-3-1.6-4
				c-1.1-1-2.5-1.5-4.3-1.5c-2,0-3.6,0.6-5,1.8c-1.4,1.2-2.2,2.8-2.4,4.7l-1.5,12.2c0,0.2,0,0.5,0,1c0,1.7,0.5,3,1.6,4
				c1,1,2.5,1.5,4.3,1.5c2,0,3.6-0.6,5-1.8s2.1-2.8,2.4-4.7c0-0.2,0.1-0.3,0.2-0.4c0.1-0.1,0.3-0.1,0.5-0.1l2.9,0.2
				c0.4,0.1,0.6,0.1,0.6,0.2l0,0.2c-0.2,2-0.9,3.8-2,5.4c-1.1,1.5-2.5,2.8-4.3,3.6c-1.7,0.9-3.7,1.3-5.8,1.3
				C89.3,435.1,86.9,434.3,85.2,432.6z"/>
			<path class="st0" d="M111.8,433.3c-1.5-1.1-2.4-2.8-2.8-4.8c-0.2-0.9-0.3-1.9-0.3-3.1c0-0.9,0-1.7,0.1-2.5
				c0.3-2.2,0.8-4.1,1.5-5.5c0.9-2,2.2-3.6,4-4.8c1.8-1.2,3.8-1.7,6.1-1.7c2.1,0,3.9,0.6,5.4,1.7c1.4,1.1,2.4,2.7,2.8,4.7
				c0.2,0.9,0.3,1.8,0.3,2.9c0,0.8,0,1.7-0.1,2.6c-0.2,2.2-0.7,4.1-1.5,5.7c-0.9,2.1-2.3,3.7-4,4.8c-1.7,1.2-3.7,1.7-5.9,1.7
				C115.2,435,113.3,434.4,111.8,433.3z M121.2,430.2c1-0.7,1.7-1.7,2.3-2.9c0.5-1.3,0.8-2.8,1-4.3c0.1-1.3,0.2-2.3,0.2-2.9
				c0-0.4,0-0.9-0.1-1.4c-0.2-1.3-0.8-2.2-1.6-2.9c-0.8-0.7-1.8-1-3.1-1c-1.2,0-2.3,0.3-3.3,1c-1,0.7-1.7,1.7-2.3,2.9
				c-0.4,1-0.8,2.5-1,4.3c-0.1,0.9-0.1,1.7-0.1,2.5c0,0.5,0,1.1,0.1,1.8c0.2,1.2,0.7,2.2,1.6,2.9c0.8,0.7,1.9,1.1,3.1,1.1
				C119.1,431.2,120.2,430.9,121.2,430.2z"/>
			<path class="st0" d="M150.5,412.7c1.2,1.2,1.9,2.9,1.9,4.9c0,0.3,0,0.7-0.1,1.3l-1.8,14.9c0,0.2-0.1,0.4-0.2,0.5
				c-0.1,0.1-0.3,0.2-0.5,0.2h-2.9c-0.2,0-0.4-0.1-0.5-0.2c-0.1-0.1-0.1-0.3-0.1-0.5l1.7-14.1c0-0.2,0-0.5,0-0.8
				c0-1.3-0.4-2.3-1.1-3.1s-1.7-1.2-3-1.2c-1.3,0-2.5,0.4-3.4,1.2s-1.6,1.8-1.9,3.2l-1.8,14.9c0,0.2-0.1,0.4-0.2,0.5
				c-0.1,0.1-0.3,0.2-0.5,0.2H133c-0.2,0-0.4-0.1-0.5-0.2c-0.1-0.1-0.1-0.3-0.1-0.5l2.7-22c0-0.2,0.1-0.4,0.3-0.5
				c0.1-0.1,0.3-0.2,0.5-0.2h2.9c0.2,0,0.3,0.1,0.4,0.2c0.1,0.1,0.1,0.3,0.1,0.5l-0.1,1.3c0,0.1,0,0.2,0,0.2c0.1,0,0.1,0,0.2,0
				c1.4-1.6,3.4-2.4,5.9-2.4C147.5,410.9,149.3,411.5,150.5,412.7z"/>
			<path class="st0" d="M174.1,412.7c1.2,1.2,1.9,2.9,1.9,4.9c0,0.3,0,0.7-0.1,1.3L174,434c0,0.2-0.1,0.4-0.2,0.5
				c-0.1,0.1-0.3,0.2-0.5,0.2h-2.9c-0.2,0-0.4-0.1-0.5-0.2c-0.1-0.1-0.1-0.3-0.1-0.5l1.7-14.1c0-0.2,0-0.5,0-0.8
				c0-1.3-0.4-2.3-1.1-3.1s-1.7-1.2-3-1.2c-1.3,0-2.5,0.4-3.4,1.2s-1.6,1.8-1.9,3.2l-1.8,14.9c0,0.2-0.1,0.4-0.2,0.5
				c-0.1,0.1-0.3,0.2-0.5,0.2h-2.9c-0.2,0-0.4-0.1-0.5-0.2c-0.1-0.1-0.1-0.3-0.1-0.5l2.7-22c0-0.2,0.1-0.4,0.3-0.5
				c0.1-0.1,0.3-0.2,0.5-0.2h2.9c0.2,0,0.3,0.1,0.4,0.2c0.1,0.1,0.1,0.3,0.1,0.5l-0.1,1.3c0,0.1,0,0.2,0,0.2c0.1,0,0.1,0,0.2,0
				c1.4-1.6,3.4-2.4,5.9-2.4C171.1,410.9,172.9,411.5,174.1,412.7z"/>
			<path class="st0" d="M192.6,430.5c0.9-0.5,1.7-1.2,2.3-2.1c0.2-0.3,0.4-0.4,0.6-0.4c0.1,0,0.2,0,0.4,0.1l1.7,1.2
				c0.2,0.1,0.3,0.3,0.3,0.5c0,0.1,0,0.3-0.1,0.5c-1,1.5-2.3,2.7-3.8,3.5c-1.6,0.9-3.3,1.3-5.3,1.3c-2.1,0-3.8-0.5-5.2-1.4
				c-1.3-1-2.3-2.4-2.8-4.2c-0.3-1.1-0.5-2.4-0.5-3.9c0-0.9,0-1.7,0.1-2.7c0.2-1.2,0.3-2.1,0.5-2.9s0.4-1.5,0.7-2.2
				c0.8-2.1,2.1-3.8,3.8-5c1.7-1.2,3.8-1.8,6.1-1.8c2.9,0,5,0.8,6.3,2.5c1.3,1.6,2,4,2,7.1c0,0.6-0.1,1.7-0.2,3.5
				c-0.1,0.5-0.4,0.7-0.8,0.7h-14.1c-0.2,0-0.2,0.1-0.2,0.2c-0.1,0.8-0.1,1.3-0.1,1.6c0,0.3,0,0.6,0.1,0.9c0.2,1.2,0.7,2.2,1.6,2.9
				c0.9,0.7,2.1,1.1,3.5,1.1C190.6,431.2,191.7,431,192.6,430.5z M187.6,415.7c-0.9,0.6-1.6,1.5-2,2.7c-0.3,0.7-0.5,1.5-0.7,2.6
				c-0.1,0.2,0,0.2,0.2,0.2h10.1c0.2,0,0.2-0.1,0.2-0.2c0.1-0.7,0.1-1.2,0.1-1.5c0-1.4-0.4-2.6-1.2-3.4s-1.9-1.3-3.4-1.3
				C189.6,414.7,188.5,415,187.6,415.7z"/>
			<path class="st0" d="M206.4,433.3c-1.5-1.2-2.4-2.8-2.7-4.8c-0.1-0.7-0.2-1.5-0.2-2.5c0-1,0.1-2.1,0.2-3c0.3-2.2,0.7-4.1,1.4-5.6
				c0.8-2,2.1-3.5,3.9-4.7c1.8-1.2,3.8-1.7,6-1.7s4.1,0.6,5.6,1.7c1.5,1.2,2.4,2.6,2.7,4.4c0.1,0.4,0.2,0.8,0.2,1.3
				c0,0.2-0.1,0.4-0.2,0.5c-0.1,0.1-0.3,0.2-0.5,0.2l-2.9,0.4h-0.1c-0.3,0-0.5-0.2-0.6-0.5l-0.1-0.6c-0.1-1-0.6-1.9-1.4-2.6
				c-0.8-0.7-1.9-1.1-3.2-1.1s-2.5,0.4-3.4,1.1c-1,0.7-1.6,1.6-2.1,2.8c-0.4,0.9-0.7,2.3-1,4.4c-0.1,1-0.2,2-0.2,2.9
				c0,0.4,0,0.9,0.1,1.5c0.2,1.2,0.6,2.2,1.4,2.9c0.8,0.7,1.8,1.1,3.1,1.1c1.3,0,2.4-0.3,3.4-1c1-0.7,1.7-1.6,2.1-2.6l0-0.2l0,0
				c0-0.1,0.1-0.3,0.3-0.4c0.2-0.2,0.3-0.2,0.5-0.2l2.8,0.5c0.4,0.1,0.6,0.3,0.5,0.7l-0.3,0.9c-0.8,1.9-2,3.4-3.8,4.5
				c-1.8,1.1-3.8,1.7-6,1.7S207.8,434.4,206.4,433.3z"/>
			<path class="st0" d="M239.2,414.7c-0.1,0.1-0.3,0.2-0.5,0.2h-4.6c-0.2,0-0.2,0.1-0.2,0.2l-1.5,12c0,0.2,0,0.5,0,0.9
				c0,1,0.2,1.7,0.7,2.1c0.5,0.4,1.3,0.6,2.3,0.6h1.1c0.2,0,0.4,0.1,0.5,0.2c0.1,0.1,0.1,0.3,0.1,0.5l-0.3,2.4
				c-0.1,0.5-0.3,0.7-0.7,0.7l-1.8,0c-2.1,0-3.6-0.3-4.6-1c-1-0.7-1.6-1.9-1.6-3.6c0-0.2,0-0.7,0.1-1.3l1.7-13.6
				c0-0.2-0.1-0.2-0.2-0.2h-2.4c-0.2,0-0.4-0.1-0.5-0.2c-0.1-0.1-0.1-0.3-0.1-0.5l0.3-2.3c0-0.2,0.1-0.4,0.3-0.5
				c0.1-0.1,0.3-0.2,0.5-0.2h2.4c0.1,0,0.2-0.1,0.3-0.2l0.6-5.2c0-0.2,0.1-0.4,0.3-0.5c0.1-0.1,0.3-0.2,0.5-0.2h2.8
				c0.2,0,0.4,0.1,0.5,0.2c0.1,0.1,0.1,0.3,0.1,0.5l-0.6,5.2c-0.1,0.2,0,0.2,0.2,0.2h4.6c0.2,0,0.4,0.1,0.5,0.2
				c0.1,0.1,0.1,0.3,0.1,0.5l-0.3,2.3C239.5,414.4,239.4,414.6,239.2,414.7z"/>
			<path class="st0" d="M242.2,434.5c-0.1-0.1-0.1-0.3-0.1-0.5l2.7-22c0-0.2,0.1-0.4,0.3-0.5c0.1-0.1,0.3-0.2,0.5-0.2h2.9
				c0.2,0,0.4,0.1,0.5,0.2c0.1,0.1,0.1,0.3,0.1,0.5l-2.7,22c0,0.2-0.1,0.4-0.2,0.5c-0.1,0.1-0.3,0.2-0.5,0.2h-2.9
				C242.4,434.7,242.3,434.6,242.2,434.5z M245.5,407.1c-0.5-0.5-0.7-1.1-0.7-1.8c0-1,0.3-1.7,0.9-2.3c0.6-0.6,1.4-0.9,2.4-0.9
				c0.8,0,1.4,0.2,1.9,0.7c0.5,0.4,0.7,1,0.7,1.8c0,1-0.3,1.7-0.9,2.4c-0.6,0.6-1.4,1-2.3,1C246.6,407.7,246,407.5,245.5,407.1z"/>
			<path class="st0" d="M270.4,412.7c1.2,1.2,1.9,2.9,1.9,4.9c0,0.3,0,0.7-0.1,1.3l-1.8,14.9c0,0.2-0.1,0.4-0.2,0.5
				c-0.1,0.1-0.3,0.2-0.5,0.2h-2.9c-0.2,0-0.4-0.1-0.5-0.2c-0.1-0.1-0.1-0.3-0.1-0.5l1.7-14.1c0-0.2,0-0.5,0-0.8
				c0-1.3-0.4-2.3-1.1-3.1s-1.7-1.2-3-1.2c-1.3,0-2.5,0.4-3.4,1.2s-1.6,1.8-1.9,3.2l-1.8,14.9c0,0.2-0.1,0.4-0.2,0.5
				c-0.1,0.1-0.3,0.2-0.5,0.2h-2.9c-0.2,0-0.4-0.1-0.5-0.2c-0.1-0.1-0.1-0.3-0.1-0.5l2.7-22c0-0.2,0.1-0.4,0.3-0.5
				c0.1-0.1,0.3-0.2,0.5-0.2h2.9c0.2,0,0.3,0.1,0.4,0.2c0.1,0.1,0.1,0.3,0.1,0.5l-0.1,1.3c0,0.1,0,0.2,0,0.2c0.1,0,0.1,0,0.2,0
				c1.4-1.6,3.4-2.4,5.9-2.4C267.5,410.9,269.2,411.5,270.4,412.7z"/>
			<path class="st0" d="M292.8,411.4c0.1-0.1,0.3-0.2,0.5-0.2h2.9c0.2,0,0.4,0.1,0.5,0.2c0.1,0.1,0.1,0.3,0.1,0.5l-2.7,21.5
				c-0.5,3.7-1.8,6.3-4,7.9c-2.2,1.6-5,2.4-8.4,2.4c-0.4,0-1.1,0-2-0.1c-0.4,0-0.6-0.2-0.6-0.7l0.5-2.7c0-0.2,0.1-0.4,0.3-0.5
				c0.1-0.1,0.3-0.2,0.5-0.1c0.4,0,1,0,1.7,0c2.5,0,4.3-0.5,5.5-1.4c1.2-1,2-2.6,2.3-4.9l0.1-0.8c0-0.1,0-0.1-0.1-0.2
				c-0.1,0-0.1,0-0.2,0.1c-1.5,1.5-3.4,2.2-5.7,2.2c-1.9,0-3.6-0.5-5.1-1.6c-1.4-1-2.3-2.6-2.7-4.6c-0.1-0.6-0.1-1.3-0.1-2.1
				c0-1,0.1-2.2,0.2-3.5c0.3-2.5,0.8-4.4,1.4-5.9c0.8-1.8,2-3.3,3.6-4.4s3.4-1.7,5.3-1.7c2.4,0,4.2,0.8,5.4,2.3
				c0,0.1,0.1,0.1,0.1,0.1s0.1-0.1,0.1-0.2l0.1-1.1C292.6,411.7,292.7,411.5,292.8,411.4z M290.8,425.7c0.1-0.5,0.3-1.5,0.4-2.9
				c0.2-1.7,0.3-2.7,0.3-3.2c0-0.2,0-0.6-0.1-1.1c-0.1-1.1-0.5-2.1-1.2-2.8c-0.7-0.7-1.7-1.1-3-1.1c-1.2,0-2.3,0.4-3.2,1.1
				c-0.9,0.7-1.6,1.6-2.1,2.8c-0.5,1-0.8,2.4-1,4.3c-0.2,1.4-0.2,2.4-0.2,2.9c0,0.6,0,1,0.1,1.4c0.2,1.1,0.6,2.1,1.4,2.8
				s1.8,1.1,3,1.1c1.3,0,2.4-0.4,3.3-1.1s1.6-1.6,1.9-2.8C290.6,426.7,290.7,426.2,290.8,425.7z"/>
			<path class="st0" d="M305.8,443.6c-0.1-0.1-0.1-0.3,0-0.5l0.3-2.3c0.1-0.5,0.2-0.7,0.3-0.7h0.3c1.2,0,2.2-0.1,2.9-0.4
				c0.7-0.3,1.3-0.8,1.9-1.5c0.5-0.8,1.1-1.9,1.7-3.4c0-0.1,0-0.2,0-0.3l-4.6-22.5v-0.1c0-0.4,0.2-0.6,0.6-0.6h3.1
				c0.4,0,0.6,0.2,0.7,0.6l3,16.6c0,0.1,0.1,0.2,0.1,0.2c0.1,0,0.1-0.1,0.1-0.2l6.9-16.5c0.2-0.4,0.4-0.6,0.8-0.6h3.1
				c0.3,0,0.5,0.1,0.5,0.4c0,0.2,0,0.3-0.1,0.4l-10.9,24.2c-1,2.1-1.8,3.7-2.6,4.7c-0.8,1-1.8,1.8-2.9,2.2s-2.7,0.6-4.7,0.6H306
				C305.9,443.9,305.8,443.8,305.8,443.6z"/>
			<path class="st0" d="M331.1,433.3c-1.5-1.1-2.4-2.8-2.8-4.8c-0.2-0.9-0.3-1.9-0.3-3.1c0-0.9,0-1.7,0.1-2.5
				c0.3-2.2,0.8-4.1,1.5-5.5c0.9-2,2.2-3.6,4-4.8c1.8-1.2,3.8-1.7,6.1-1.7c2.1,0,3.9,0.6,5.4,1.7c1.4,1.1,2.4,2.7,2.8,4.7
				c0.2,0.9,0.3,1.8,0.3,2.9c0,0.8,0,1.7-0.1,2.6c-0.2,2.2-0.7,4.1-1.5,5.7c-0.9,2.1-2.3,3.7-4,4.8c-1.7,1.2-3.7,1.7-5.9,1.7
				C334.4,435,332.6,434.4,331.1,433.3z M340.4,430.2c1-0.7,1.7-1.7,2.3-2.9c0.5-1.3,0.8-2.8,1-4.3c0.1-1.3,0.2-2.3,0.2-2.9
				c0-0.4,0-0.9-0.1-1.4c-0.2-1.3-0.8-2.2-1.6-2.9c-0.8-0.7-1.8-1-3.1-1c-1.2,0-2.3,0.3-3.3,1c-1,0.7-1.7,1.7-2.3,2.9
				c-0.4,1-0.8,2.5-1,4.3c-0.1,0.9-0.1,1.7-0.1,2.5c0,0.5,0,1.1,0.1,1.8c0.2,1.2,0.7,2.2,1.6,2.9c0.8,0.7,1.9,1.1,3.1,1.1
				C338.4,431.2,339.5,430.9,340.4,430.2z"/>
			<path class="st0" d="M368.1,411.4c0.1-0.1,0.3-0.2,0.5-0.2h2.9c0.2,0,0.3,0.1,0.4,0.2c0.1,0.1,0.1,0.3,0.1,0.5l-2.7,22
				c0,0.2-0.1,0.4-0.2,0.5c-0.1,0.1-0.3,0.2-0.5,0.2h-2.9c-0.2,0-0.4-0.1-0.5-0.2c-0.1-0.1-0.1-0.3-0.1-0.5l0.2-1.4
				c0-0.2-0.1-0.2-0.3-0.1c-1.4,1.7-3.3,2.5-5.8,2.5c-2.1,0-3.8-0.6-5.2-1.7s-2.1-2.7-2.1-4.8c0-0.5,0-0.9,0-1.1l1.9-15.5
				c0-0.2,0.1-0.4,0.3-0.5c0.1-0.1,0.3-0.2,0.5-0.2h2.9c0.2,0,0.4,0.1,0.5,0.2c0.1,0.1,0.1,0.3,0.1,0.5l-1.7,14.1c0,0.2,0,0.5,0,0.9
				c0,1.3,0.4,2.4,1.1,3.1c0.7,0.8,1.7,1.1,3,1.1c1.5,0,2.8-0.5,3.7-1.4c1-0.9,1.6-2.2,1.8-3.7l1.7-14.1
				C367.9,411.7,368,411.5,368.1,411.4z"/>
			<path class="st0" d="M390.2,411.5c0.2,0.1,0.3,0.3,0.3,0.5c0,0.1,0,0.2-0.1,0.4l-1,3c-0.1,0.3-0.2,0.5-0.5,0.5
				c-0.2,0-0.3,0-0.4,0c-0.4-0.2-0.9-0.2-1.5-0.2c-0.3,0-0.5,0-0.7,0c-1.4,0.1-2.6,0.6-3.6,1.5s-1.6,2.2-1.8,3.7l-1.7,13.2
				c0,0.2-0.1,0.4-0.2,0.5c-0.1,0.1-0.3,0.2-0.5,0.2h-2.9c-0.2,0-0.4-0.1-0.5-0.2c-0.1-0.1-0.1-0.3-0.1-0.5l2.7-22
				c0-0.2,0.1-0.4,0.3-0.5c0.1-0.1,0.3-0.2,0.5-0.2h2.9c0.2,0,0.3,0.1,0.4,0.2c0.1,0.1,0.1,0.3,0.1,0.5l-0.2,2.1c0,0.1,0,0.2,0,0.2
				c0.1,0,0.1,0,0.2-0.1c1.5-2.1,3.5-3.1,5.8-3.1C388.7,411,389.5,411.2,390.2,411.5z"/>
			<path class="st0" d="M402.8,433.3c-1.5-1.2-2.4-2.8-2.7-4.8c-0.1-0.7-0.2-1.5-0.2-2.5c0-1,0.1-2.1,0.2-3c0.3-2.2,0.7-4.1,1.4-5.6
				c0.8-2,2.1-3.5,3.9-4.7c1.8-1.2,3.8-1.7,6-1.7s4.1,0.6,5.6,1.7c1.5,1.2,2.4,2.6,2.7,4.4c0.1,0.4,0.2,0.8,0.2,1.3
				c0,0.2-0.1,0.4-0.2,0.5c-0.1,0.1-0.3,0.2-0.5,0.2l-2.9,0.4H416c-0.3,0-0.5-0.2-0.6-0.5l-0.1-0.6c-0.1-1-0.6-1.9-1.4-2.6
				c-0.8-0.7-1.9-1.1-3.2-1.1s-2.5,0.4-3.4,1.1c-1,0.7-1.6,1.6-2.1,2.8c-0.4,0.9-0.7,2.3-1,4.4c-0.1,1-0.2,2-0.2,2.9
				c0,0.4,0,0.9,0.1,1.5c0.2,1.2,0.6,2.2,1.4,2.9c0.8,0.7,1.8,1.1,3.1,1.1c1.3,0,2.4-0.3,3.4-1c1-0.7,1.7-1.6,2.1-2.6l0-0.2l0,0
				c0-0.1,0.1-0.3,0.3-0.4c0.2-0.2,0.3-0.2,0.5-0.2l2.8,0.5c0.4,0.1,0.6,0.3,0.5,0.7l-0.3,0.9c-0.8,1.9-2,3.4-3.8,4.5
				c-1.8,1.1-3.8,1.7-6,1.7S404.2,434.4,402.8,433.3z"/>
			<path class="st0" d="M425.6,433.3c-1.5-1.1-2.4-2.8-2.8-4.8c-0.2-0.9-0.3-1.9-0.3-3.1c0-0.9,0-1.7,0.1-2.5
				c0.3-2.2,0.8-4.1,1.5-5.5c0.9-2,2.2-3.6,4-4.8c1.8-1.2,3.8-1.7,6.1-1.7c2.1,0,3.9,0.6,5.4,1.7c1.4,1.1,2.4,2.7,2.8,4.7
				c0.2,0.9,0.3,1.8,0.3,2.9c0,0.8,0,1.7-0.1,2.6c-0.2,2.2-0.7,4.1-1.5,5.7c-0.9,2.1-2.3,3.7-4,4.8c-1.7,1.2-3.7,1.7-5.9,1.7
				C429,435,427.1,434.4,425.6,433.3z M435,430.2c1-0.7,1.7-1.7,2.3-2.9c0.5-1.3,0.8-2.8,1-4.3c0.1-1.3,0.2-2.3,0.2-2.9
				c0-0.4,0-0.9-0.1-1.4c-0.2-1.3-0.8-2.2-1.6-2.9c-0.8-0.7-1.8-1-3.1-1c-1.2,0-2.3,0.3-3.3,1c-1,0.7-1.7,1.7-2.3,2.9
				c-0.4,1-0.8,2.5-1,4.3c-0.1,0.9-0.1,1.7-0.1,2.5c0,0.5,0,1.1,0.1,1.8c0.2,1.2,0.7,2.2,1.6,2.9c0.8,0.7,1.9,1.1,3.1,1.1
				C432.9,431.2,434,430.9,435,430.2z"/>
			<path class="st0" d="M464.3,412.7c1.2,1.2,1.9,2.9,1.9,4.9c0,0.3,0,0.7-0.1,1.3l-1.8,14.9c0,0.2-0.1,0.4-0.2,0.5
				c-0.1,0.1-0.3,0.2-0.5,0.2h-2.9c-0.2,0-0.4-0.1-0.5-0.2c-0.1-0.1-0.1-0.3-0.1-0.5l1.7-14.1c0-0.2,0-0.5,0-0.8
				c0-1.3-0.4-2.3-1.1-3.1s-1.7-1.2-3-1.2c-1.3,0-2.5,0.4-3.4,1.2s-1.6,1.8-1.9,3.2l-1.8,14.9c0,0.2-0.1,0.4-0.2,0.5
				c-0.1,0.1-0.3,0.2-0.5,0.2h-2.9c-0.2,0-0.4-0.1-0.5-0.2c-0.1-0.1-0.1-0.3-0.1-0.5l2.7-22c0-0.2,0.1-0.4,0.3-0.5
				c0.1-0.1,0.3-0.2,0.5-0.2h2.9c0.2,0,0.3,0.1,0.4,0.2c0.1,0.1,0.1,0.3,0.1,0.5l-0.1,1.3c0,0.1,0,0.2,0,0.2c0.1,0,0.1,0,0.2,0
				c1.4-1.6,3.4-2.4,5.9-2.4C461.3,410.9,463.1,411.5,464.3,412.7z"/>
			<path class="st0" d="M473.2,433.3c-1.5-1.2-2.4-2.8-2.7-4.8c-0.1-0.7-0.2-1.5-0.2-2.5c0-1,0.1-2.1,0.2-3c0.3-2.2,0.7-4.1,1.4-5.6
				c0.8-2,2.1-3.5,3.9-4.7c1.8-1.2,3.8-1.7,6-1.7s4.1,0.6,5.6,1.7c1.5,1.2,2.4,2.6,2.7,4.4c0.1,0.4,0.2,0.8,0.2,1.3
				c0,0.2-0.1,0.4-0.2,0.5c-0.1,0.1-0.3,0.2-0.5,0.2l-2.9,0.4h-0.1c-0.3,0-0.5-0.2-0.6-0.5l-0.1-0.6c-0.1-1-0.6-1.9-1.4-2.6
				c-0.8-0.7-1.9-1.1-3.2-1.1s-2.5,0.4-3.4,1.1c-1,0.7-1.6,1.6-2.1,2.8c-0.4,0.9-0.7,2.3-1,4.4c-0.1,1-0.2,2-0.2,2.9
				c0,0.4,0,0.9,0.1,1.5c0.2,1.2,0.6,2.2,1.4,2.9c0.8,0.7,1.8,1.1,3.1,1.1c1.3,0,2.4-0.3,3.4-1c1-0.7,1.7-1.6,2.1-2.6l0-0.2l0,0
				c0-0.1,0.1-0.3,0.3-0.4c0.2-0.2,0.3-0.2,0.5-0.2l2.8,0.5c0.4,0.1,0.6,0.3,0.5,0.7l-0.3,0.9c-0.8,1.9-2,3.4-3.8,4.5
				c-1.8,1.1-3.8,1.7-6,1.7S474.6,434.4,473.2,433.3z"/>
			<path class="st0" d="M505.5,430.5c0.9-0.5,1.7-1.2,2.3-2.1c0.2-0.3,0.4-0.4,0.6-0.4c0.1,0,0.2,0,0.4,0.1l1.7,1.2
				c0.2,0.1,0.3,0.3,0.3,0.5c0,0.1,0,0.3-0.1,0.5c-1,1.5-2.3,2.7-3.8,3.5c-1.6,0.9-3.3,1.3-5.3,1.3c-2.1,0-3.8-0.5-5.2-1.4
				c-1.3-1-2.3-2.4-2.8-4.2c-0.3-1.1-0.5-2.4-0.5-3.9c0-0.9,0-1.7,0.1-2.7c0.2-1.2,0.3-2.1,0.5-2.9s0.4-1.5,0.7-2.2
				c0.8-2.1,2.1-3.8,3.8-5c1.7-1.2,3.8-1.8,6.1-1.8c2.9,0,5,0.8,6.3,2.5c1.3,1.6,2,4,2,7.1c0,0.6-0.1,1.7-0.2,3.5
				c-0.1,0.5-0.4,0.7-0.8,0.7h-14.1c-0.2,0-0.2,0.1-0.2,0.2c-0.1,0.8-0.1,1.3-0.1,1.6c0,0.3,0,0.6,0.1,0.9c0.2,1.2,0.7,2.2,1.6,2.9
				c0.9,0.7,2.1,1.1,3.5,1.1C503.5,431.2,504.6,431,505.5,430.5z M500.5,415.7c-0.9,0.6-1.6,1.5-2,2.7c-0.3,0.7-0.5,1.5-0.7,2.6
				c-0.1,0.2,0,0.2,0.2,0.2H508c0.2,0,0.2-0.1,0.2-0.2c0.1-0.7,0.1-1.2,0.1-1.5c0-1.4-0.4-2.6-1.2-3.4s-1.9-1.3-3.4-1.3
				C502.5,414.7,501.4,415,500.5,415.7z"/>
			<path class="st0" d="M536.6,420.1c0,1-0.1,2-0.2,2.9c-0.3,2.3-0.8,4.1-1.4,5.6c-0.9,2-2.1,3.6-3.7,4.7c-1.6,1.1-3.4,1.7-5.7,1.7
				c-1,0-2-0.2-2.8-0.6c-0.8-0.4-1.5-1-2.1-1.7c-0.1-0.1-0.1-0.1-0.2-0.1s-0.1,0.1-0.1,0.2l-1.2,10c0,0.2-0.1,0.4-0.3,0.5
				c-0.1,0.1-0.3,0.2-0.5,0.2h-2.9c-0.2,0-0.3-0.1-0.4-0.2c-0.1-0.1-0.1-0.3-0.1-0.5l3.8-30.8c0-0.2,0.1-0.4,0.3-0.5
				c0.1-0.1,0.3-0.2,0.5-0.2h2.9c0.2,0,0.4,0.1,0.5,0.2c0.1,0.1,0.1,0.3,0.1,0.5l-0.1,1.2c0,0.1,0,0.2,0,0.2s0.1,0,0.2,0
				c0.8-0.8,1.6-1.4,2.6-1.8s1.9-0.6,2.9-0.6c2.1,0,3.9,0.5,5.2,1.6c1.3,1.1,2.1,2.6,2.5,4.6C536.5,418,536.6,419,536.6,420.1z
				 M532.2,422.9c0.1-0.8,0.1-1.6,0.1-2.3c0-1.4-0.2-2.5-0.6-3.4c-0.6-1.7-2-2.5-4-2.5c-1.7,0-3.1,0.8-4.2,2.5
				c-0.9,1.4-1.5,3.3-1.7,5.8c-0.1,1.2-0.2,2.1-0.2,2.5c0,1.3,0.2,2.5,0.6,3.4c0.7,1.6,1.8,2.3,3.5,2.3c1.7,0,3.1-0.7,4.3-2.2
				C531.2,427.5,531.9,425.4,532.2,422.9z"/>
			<path class="st0" d="M552.9,414.7c-0.1,0.1-0.3,0.2-0.5,0.2h-4.6c-0.2,0-0.2,0.1-0.2,0.2l-1.5,12c0,0.2,0,0.5,0,0.9
				c0,1,0.2,1.7,0.7,2.1c0.5,0.4,1.3,0.6,2.3,0.6h1.1c0.2,0,0.4,0.1,0.5,0.2c0.1,0.1,0.1,0.3,0.1,0.5l-0.3,2.4
				c-0.1,0.5-0.3,0.7-0.7,0.7l-1.8,0c-2.1,0-3.6-0.3-4.6-1c-1-0.7-1.6-1.9-1.6-3.6c0-0.2,0-0.7,0.1-1.3l1.7-13.6
				c0-0.2-0.1-0.2-0.2-0.2h-2.4c-0.2,0-0.4-0.1-0.5-0.2c-0.1-0.1-0.1-0.3-0.1-0.5l0.3-2.3c0-0.2,0.1-0.4,0.3-0.5
				c0.1-0.1,0.3-0.2,0.5-0.2h2.4c0.1,0,0.2-0.1,0.3-0.2l0.6-5.2c0-0.2,0.1-0.4,0.3-0.5c0.1-0.1,0.3-0.2,0.5-0.2h2.8
				c0.2,0,0.4,0.1,0.5,0.2c0.1,0.1,0.1,0.3,0.1,0.5l-0.6,5.2c-0.1,0.2,0,0.2,0.2,0.2h4.6c0.2,0,0.4,0.1,0.5,0.2
				c0.1,0.1,0.1,0.3,0.1,0.5l-0.3,2.3C553.2,414.4,553.1,414.6,552.9,414.7z"/>
			<path class="st0" d="M557.3,433.3c-1.5-1.1-2.2-2.4-2.2-4.1c0-0.3,0-0.5,0-0.6l0-0.3c0-0.2,0.1-0.4,0.3-0.5
				c0.1-0.1,0.3-0.2,0.5-0.2h2.8c0.2,0,0.4,0,0.5,0.1c0.1,0.1,0.2,0.1,0.1,0.2l0,0.4c-0.1,0.9,0.3,1.6,1.1,2.3c0.8,0.6,1.9,1,3.3,1
				c1.4,0,2.6-0.3,3.6-1c0.9-0.7,1.4-1.5,1.4-2.5c0-0.8-0.4-1.4-1.1-1.8s-1.9-0.9-3.4-1.3c-1.6-0.5-2.9-0.9-3.9-1.4
				s-1.9-1.1-2.6-1.9s-1.1-1.9-1.1-3.1c0-2.3,0.9-4.1,2.6-5.5s4-2,6.8-2c2.4,0,4.4,0.5,5.8,1.6s2.2,2.5,2.2,4.3c0,0.3,0,0.6,0,0.7
				c0,0.2-0.1,0.3-0.3,0.4s-0.3,0.2-0.5,0.2h-2.7c-0.2,0-0.3,0-0.5-0.1c-0.1-0.1-0.2-0.1-0.1-0.2l0-0.3c0.1-0.9-0.3-1.6-1-2.2
				s-1.9-0.9-3.3-0.9c-1.4,0-2.6,0.3-3.5,0.9s-1.3,1.3-1.3,2.3c0,0.8,0.4,1.4,1.1,1.8s1.9,0.9,3.5,1.4c1.6,0.5,2.9,0.9,3.9,1.3
				c1,0.4,1.9,1.1,2.6,1.9c0.7,0.8,1.1,1.9,1.1,3.2c0,0.4,0,0.6,0,0.8c-0.3,2.1-1.3,3.7-3,5c-1.7,1.2-4,1.8-6.6,1.8
				C560.8,434.9,558.8,434.4,557.3,433.3z"/>
			<path class="st0" d="M598.3,414.7c-0.1,0.1-0.3,0.2-0.5,0.2h-4.6c-0.2,0-0.2,0.1-0.2,0.2l-1.5,12c0,0.2,0,0.5,0,0.9
				c0,1,0.2,1.7,0.7,2.1c0.5,0.4,1.3,0.6,2.3,0.6h1.1c0.2,0,0.4,0.1,0.5,0.2c0.1,0.1,0.1,0.3,0.1,0.5l-0.3,2.4
				c-0.1,0.5-0.3,0.7-0.7,0.7l-1.8,0c-2.1,0-3.6-0.3-4.6-1c-1-0.7-1.6-1.9-1.6-3.6c0-0.2,0-0.7,0.1-1.3l1.7-13.6
				c0-0.2-0.1-0.2-0.2-0.2h-2.4c-0.2,0-0.4-0.1-0.5-0.2c-0.1-0.1-0.1-0.3-0.1-0.5l0.3-2.3c0-0.2,0.1-0.4,0.3-0.5
				c0.1-0.1,0.3-0.2,0.5-0.2h2.4c0.1,0,0.2-0.1,0.3-0.2l0.6-5.2c0-0.2,0.1-0.4,0.3-0.5c0.1-0.1,0.3-0.2,0.5-0.2h2.8
				c0.2,0,0.4,0.1,0.5,0.2c0.1,0.1,0.1,0.3,0.1,0.5l-0.6,5.2c-0.1,0.2,0,0.2,0.2,0.2h4.6c0.2,0,0.4,0.1,0.5,0.2
				c0.1,0.1,0.1,0.3,0.1,0.5l-0.3,2.3C598.5,414.4,598.4,414.6,598.3,414.7z"/>
			<path class="st0" d="M603.8,433.3c-1.5-1.1-2.4-2.8-2.8-4.8c-0.2-0.9-0.3-1.9-0.3-3.1c0-0.9,0-1.7,0.1-2.5
				c0.3-2.2,0.8-4.1,1.5-5.5c0.9-2,2.2-3.6,4-4.8c1.8-1.2,3.8-1.7,6.1-1.7c2.1,0,3.9,0.6,5.4,1.7c1.4,1.1,2.4,2.7,2.8,4.7
				c0.2,0.9,0.3,1.8,0.3,2.9c0,0.8,0,1.7-0.1,2.6c-0.2,2.2-0.7,4.1-1.5,5.7c-0.9,2.1-2.3,3.7-4,4.8c-1.7,1.2-3.7,1.7-5.9,1.7
				C607.2,435,605.3,434.4,603.8,433.3z M613.2,430.2c1-0.7,1.7-1.7,2.3-2.9c0.5-1.3,0.8-2.8,1-4.3c0.1-1.3,0.2-2.3,0.2-2.9
				c0-0.4,0-0.9-0.1-1.4c-0.2-1.3-0.8-2.2-1.6-2.9c-0.8-0.7-1.8-1-3.1-1c-1.2,0-2.3,0.3-3.3,1c-1,0.7-1.7,1.7-2.3,2.9
				c-0.4,1-0.8,2.5-1,4.3c-0.1,0.9-0.1,1.7-0.1,2.5c0,0.5,0,1.1,0.1,1.8c0.2,1.2,0.7,2.2,1.6,2.9c0.8,0.7,1.9,1.1,3.1,1.1
				C611.1,431.2,612.2,430.9,613.2,430.2z"/>
			<path class="st0" d="M636.1,433.3c-1.5-1.2-2.4-2.8-2.7-4.8c-0.1-0.7-0.2-1.5-0.2-2.5c0-1,0.1-2.1,0.2-3c0.3-2.2,0.7-4.1,1.4-5.6
				c0.8-2,2.1-3.5,3.9-4.7c1.8-1.2,3.8-1.7,6-1.7s4.1,0.6,5.6,1.7c1.5,1.2,2.4,2.6,2.7,4.4c0.1,0.4,0.2,0.8,0.2,1.3
				c0,0.2-0.1,0.4-0.2,0.5c-0.1,0.1-0.3,0.2-0.5,0.2l-2.9,0.4h-0.1c-0.3,0-0.5-0.2-0.6-0.5l-0.1-0.6c-0.1-1-0.6-1.9-1.4-2.6
				c-0.8-0.7-1.9-1.1-3.2-1.1s-2.5,0.4-3.4,1.1c-1,0.7-1.6,1.6-2.1,2.8c-0.4,0.9-0.7,2.3-1,4.4c-0.1,1-0.2,2-0.2,2.9
				c0,0.4,0,0.9,0.1,1.5c0.2,1.2,0.6,2.2,1.4,2.9c0.8,0.7,1.8,1.1,3.1,1.1c1.3,0,2.4-0.3,3.4-1c1-0.7,1.7-1.6,2.1-2.6l0-0.2l0,0
				c0-0.1,0.1-0.3,0.3-0.4c0.2-0.2,0.3-0.2,0.5-0.2l2.8,0.5c0.4,0.1,0.6,0.3,0.5,0.7l-0.3,0.9c-0.8,1.9-2,3.4-3.8,4.5
				c-1.8,1.1-3.8,1.7-6,1.7S637.6,434.4,636.1,433.3z"/>
			<path class="st0" d="M672,411.4c0.1-0.1,0.3-0.2,0.5-0.2h2.9c0.2,0,0.3,0.1,0.4,0.2c0.1,0.1,0.1,0.3,0.1,0.5l-2.7,22
				c0,0.2-0.1,0.4-0.2,0.5c-0.1,0.1-0.3,0.2-0.5,0.2h-2.9c-0.2,0-0.4-0.1-0.5-0.2c-0.1-0.1-0.1-0.3-0.1-0.5l0.2-1.4
				c0-0.2-0.1-0.2-0.3-0.1c-1.4,1.7-3.3,2.5-5.8,2.5c-2.1,0-3.8-0.6-5.2-1.7s-2.1-2.7-2.1-4.8c0-0.5,0-0.9,0-1.1l1.9-15.5
				c0-0.2,0.1-0.4,0.3-0.5c0.1-0.1,0.3-0.2,0.5-0.2h2.9c0.2,0,0.4,0.1,0.5,0.2c0.1,0.1,0.1,0.3,0.1,0.5l-1.7,14.1c0,0.2,0,0.5,0,0.9
				c0,1.3,0.4,2.4,1.1,3.1c0.7,0.8,1.7,1.1,3,1.1c1.5,0,2.8-0.5,3.7-1.4c1-0.9,1.6-2.2,1.8-3.7l1.7-14.1
				C671.8,411.7,671.9,411.5,672,411.4z"/>
			<path class="st0" d="M680.9,433.3c-1.5-1.1-2.2-2.4-2.2-4.1c0-0.3,0-0.5,0-0.6l0-0.3c0-0.2,0.1-0.4,0.3-0.5
				c0.1-0.1,0.3-0.2,0.5-0.2h2.8c0.2,0,0.4,0,0.5,0.1c0.1,0.1,0.2,0.1,0.1,0.2l0,0.4c-0.1,0.9,0.3,1.6,1.1,2.3c0.8,0.6,1.9,1,3.3,1
				c1.4,0,2.6-0.3,3.6-1c0.9-0.7,1.4-1.5,1.4-2.5c0-0.8-0.4-1.4-1.1-1.8s-1.9-0.9-3.4-1.3c-1.6-0.5-2.9-0.9-3.9-1.4
				s-1.9-1.1-2.6-1.9s-1.1-1.9-1.1-3.1c0-2.3,0.9-4.1,2.6-5.5s4-2,6.8-2c2.4,0,4.4,0.5,5.8,1.6s2.2,2.5,2.2,4.3c0,0.3,0,0.6,0,0.7
				c0,0.2-0.1,0.3-0.3,0.4s-0.3,0.2-0.5,0.2H694c-0.2,0-0.3,0-0.5-0.1c-0.1-0.1-0.2-0.1-0.1-0.2l0-0.3c0.1-0.9-0.3-1.6-1-2.2
				s-1.9-0.9-3.3-0.9c-1.4,0-2.6,0.3-3.5,0.9s-1.3,1.3-1.3,2.3c0,0.8,0.4,1.4,1.1,1.8s1.9,0.9,3.5,1.4c1.6,0.5,2.9,0.9,3.9,1.3
				c1,0.4,1.9,1.1,2.6,1.9c0.7,0.8,1.1,1.9,1.1,3.2c0,0.4,0,0.6,0,0.8c-0.3,2.1-1.3,3.7-3,5c-1.7,1.2-4,1.8-6.6,1.8
				C684.3,434.9,682.4,434.4,680.9,433.3z"/>
			<path class="st0" d="M713.5,414.7c-0.1,0.1-0.3,0.2-0.5,0.2h-4.6c-0.2,0-0.2,0.1-0.2,0.2l-1.5,12c0,0.2,0,0.5,0,0.9
				c0,1,0.2,1.7,0.7,2.1c0.5,0.4,1.3,0.6,2.3,0.6h1.1c0.2,0,0.4,0.1,0.5,0.2c0.1,0.1,0.1,0.3,0.1,0.5l-0.3,2.4
				c-0.1,0.5-0.3,0.7-0.7,0.7l-1.8,0c-2.1,0-3.6-0.3-4.6-1c-1-0.7-1.6-1.9-1.6-3.6c0-0.2,0-0.7,0.1-1.3l1.7-13.6
				c0-0.2-0.1-0.2-0.2-0.2h-2.4c-0.2,0-0.4-0.1-0.5-0.2c-0.1-0.1-0.1-0.3-0.1-0.5l0.3-2.3c0-0.2,0.1-0.4,0.3-0.5
				c0.1-0.1,0.3-0.2,0.5-0.2h2.4c0.1,0,0.2-0.1,0.3-0.2l0.6-5.2c0-0.2,0.1-0.4,0.3-0.5c0.1-0.1,0.3-0.2,0.5-0.2h2.8
				c0.2,0,0.4,0.1,0.5,0.2c0.1,0.1,0.1,0.3,0.1,0.5l-0.6,5.2c-0.1,0.2,0,0.2,0.2,0.2h4.6c0.2,0,0.4,0.1,0.5,0.2
				c0.1,0.1,0.1,0.3,0.1,0.5l-0.3,2.3C713.7,414.4,713.6,414.6,713.5,414.7z"/>
			<path class="st0" d="M719,433.3c-1.5-1.1-2.4-2.8-2.8-4.8c-0.2-0.9-0.3-1.9-0.3-3.1c0-0.9,0-1.7,0.1-2.5c0.3-2.2,0.8-4.1,1.5-5.5
				c0.9-2,2.2-3.6,4-4.8c1.8-1.2,3.8-1.7,6.1-1.7c2.1,0,3.9,0.6,5.4,1.7c1.4,1.1,2.4,2.7,2.8,4.7c0.2,0.9,0.3,1.8,0.3,2.9
				c0,0.8,0,1.7-0.1,2.6c-0.2,2.2-0.7,4.1-1.5,5.7c-0.9,2.1-2.3,3.7-4,4.8c-1.7,1.2-3.7,1.7-5.9,1.7
				C722.4,435,720.5,434.4,719,433.3z M728.3,430.2c1-0.7,1.7-1.7,2.3-2.9c0.5-1.3,0.8-2.8,1-4.3c0.1-1.3,0.2-2.3,0.2-2.9
				c0-0.4,0-0.9-0.1-1.4c-0.2-1.3-0.8-2.2-1.6-2.9c-0.8-0.7-1.8-1-3.1-1c-1.2,0-2.3,0.3-3.3,1c-1,0.7-1.7,1.7-2.3,2.9
				c-0.4,1-0.8,2.5-1,4.3c-0.1,0.9-0.1,1.7-0.1,2.5c0,0.5,0,1.1,0.1,1.8c0.2,1.2,0.7,2.2,1.6,2.9c0.8,0.7,1.9,1.1,3.1,1.1
				C726.3,431.2,727.4,430.9,728.3,430.2z"/>
			<path class="st0" d="M770.7,412.6c1.1,1.1,1.7,2.7,1.7,4.8c0,0.3,0,0.8-0.1,1.4l-1.8,15.1c-0.1,0.5-0.4,0.7-0.8,0.7h-2.9
				c-0.2,0-0.4-0.1-0.5-0.2c-0.1-0.1-0.1-0.3-0.1-0.5l1.7-14.2c0-0.2,0-0.5,0-1c0-1.3-0.3-2.2-1-3c-0.7-0.7-1.6-1.1-2.9-1.1
				c-1.4,0-2.6,0.4-3.5,1.3c-1,0.9-1.5,2.1-1.7,3.6l-1.7,14.3c-0.1,0.5-0.4,0.7-0.8,0.7h-2.9c-0.2,0-0.4-0.1-0.5-0.2
				c-0.1-0.1-0.1-0.3-0.1-0.5l1.7-14.2c0-0.2,0-0.5,0-1c0-1.3-0.3-2.2-1-3c-0.7-0.7-1.6-1.1-2.9-1.1c-1.4,0-2.5,0.4-3.4,1.3
				c-0.9,0.9-1.5,2.1-1.7,3.6l-1.8,14.3c0,0.2-0.1,0.4-0.2,0.5c-0.1,0.1-0.3,0.2-0.5,0.2h-2.9c-0.2,0-0.4-0.1-0.5-0.2
				c-0.1-0.1-0.1-0.3-0.1-0.5l2.7-22c0-0.2,0.1-0.4,0.3-0.5c0.1-0.1,0.3-0.2,0.5-0.2h2.9c0.2,0,0.3,0.1,0.4,0.2
				c0.1,0.1,0.1,0.3,0.1,0.5l-0.1,1.2c0,0.1,0,0.2,0,0.2c0.1,0,0.1,0,0.2,0c1.6-1.6,3.6-2.4,6-2.4c1.5,0,2.7,0.3,3.7,0.9
				s1.7,1.5,2.2,2.6c0.1,0.1,0.2,0.1,0.3,0c0.8-1.2,1.9-2.1,3.1-2.6c1.2-0.6,2.6-0.9,4-0.9C768,410.9,769.6,411.5,770.7,412.6z"/>
			<path class="st0" d="M788.9,430.5c0.9-0.5,1.7-1.2,2.3-2.1c0.2-0.3,0.4-0.4,0.6-0.4c0.1,0,0.2,0,0.4,0.1l1.7,1.2
				c0.2,0.1,0.3,0.3,0.3,0.5c0,0.1,0,0.3-0.1,0.5c-1,1.5-2.3,2.7-3.8,3.5c-1.6,0.9-3.3,1.3-5.3,1.3c-2.1,0-3.8-0.5-5.2-1.4
				c-1.3-1-2.3-2.4-2.8-4.2c-0.3-1.1-0.5-2.4-0.5-3.9c0-0.9,0-1.7,0.1-2.7c0.2-1.2,0.3-2.1,0.5-2.9s0.4-1.5,0.7-2.2
				c0.8-2.1,2.1-3.8,3.8-5c1.7-1.2,3.8-1.8,6.1-1.8c2.9,0,5,0.8,6.3,2.5c1.3,1.6,2,4,2,7.1c0,0.6-0.1,1.7-0.2,3.5
				c-0.1,0.5-0.4,0.7-0.8,0.7h-14.1c-0.2,0-0.2,0.1-0.2,0.2c-0.1,0.8-0.1,1.3-0.1,1.6c0,0.3,0,0.6,0.1,0.9c0.2,1.2,0.7,2.2,1.6,2.9
				c0.9,0.7,2.1,1.1,3.5,1.1C786.9,431.2,787.9,431,788.9,430.5z M783.8,415.7c-0.9,0.6-1.6,1.5-2,2.7c-0.3,0.7-0.5,1.5-0.7,2.6
				c-0.1,0.2,0,0.2,0.2,0.2h10.1c0.2,0,0.2-0.1,0.2-0.2c0.1-0.7,0.1-1.2,0.1-1.5c0-1.4-0.4-2.6-1.2-3.4s-1.9-1.3-3.4-1.3
				C785.8,414.7,784.7,415,783.8,415.7z"/>
			<path class="st0" d="M814.3,411.5c0.2,0.1,0.3,0.3,0.3,0.5c0,0.1,0,0.2-0.1,0.4l-1,3c-0.1,0.3-0.2,0.5-0.5,0.5
				c-0.2,0-0.3,0-0.4,0c-0.4-0.2-0.9-0.2-1.5-0.2c-0.3,0-0.5,0-0.7,0c-1.4,0.1-2.6,0.6-3.6,1.5s-1.6,2.2-1.8,3.7l-1.7,13.2
				c0,0.2-0.1,0.4-0.2,0.5c-0.1,0.1-0.3,0.2-0.5,0.2h-2.9c-0.2,0-0.4-0.1-0.5-0.2c-0.1-0.1-0.1-0.3-0.1-0.5l2.7-22
				c0-0.2,0.1-0.4,0.3-0.5c0.1-0.1,0.3-0.2,0.5-0.2h2.9c0.2,0,0.3,0.1,0.4,0.2c0.1,0.1,0.1,0.3,0.1,0.5L806,414c0,0.1,0,0.2,0,0.2
				c0.1,0,0.1,0,0.2-0.1c1.5-2.1,3.5-3.1,5.8-3.1C812.9,411,813.7,411.2,814.3,411.5z"/>
			<path class="st0" d="M816.8,433.3c-1.5-1.1-2.2-2.4-2.2-4.1c0-0.3,0-0.5,0-0.6l0-0.3c0-0.2,0.1-0.4,0.3-0.5
				c0.1-0.1,0.3-0.2,0.5-0.2h2.8c0.2,0,0.4,0,0.5,0.1c0.1,0.1,0.2,0.1,0.1,0.2l0,0.4c-0.1,0.9,0.3,1.6,1.1,2.3c0.8,0.6,1.9,1,3.3,1
				c1.4,0,2.6-0.3,3.6-1c0.9-0.7,1.4-1.5,1.4-2.5c0-0.8-0.4-1.4-1.1-1.8s-1.9-0.9-3.4-1.3c-1.6-0.5-2.9-0.9-3.9-1.4
				s-1.9-1.1-2.6-1.9s-1.1-1.9-1.1-3.1c0-2.3,0.9-4.1,2.6-5.5s4-2,6.8-2c2.4,0,4.4,0.5,5.8,1.6s2.2,2.5,2.2,4.3c0,0.3,0,0.6,0,0.7
				c0,0.2-0.1,0.3-0.3,0.4s-0.3,0.2-0.5,0.2H830c-0.2,0-0.3,0-0.5-0.1c-0.1-0.1-0.2-0.1-0.1-0.2l0-0.3c0.1-0.9-0.3-1.6-1-2.2
				s-1.9-0.9-3.3-0.9c-1.4,0-2.6,0.3-3.5,0.9s-1.3,1.3-1.3,2.3c0,0.8,0.4,1.4,1.1,1.8s1.9,0.9,3.5,1.4c1.6,0.5,2.9,0.9,3.9,1.3
				c1,0.4,1.9,1.1,2.6,1.9c0.7,0.8,1.1,1.9,1.1,3.2c0,0.4,0,0.6,0,0.8c-0.3,2.1-1.3,3.7-3,5c-1.7,1.2-4,1.8-6.6,1.8
				C820.3,434.9,818.3,434.4,816.8,433.3z"/>
		</g>
	</g>
</g>
</svg>
